<svg viewBox="0 0 96 96" xmlns="http://www.w3.org/2000/svg">
  <g>
    <path d="m92 11.167c0-3.77-3.065-6.838-6.832-6.838h-42.278c-3.767 0-6.835 3.068-6.835 6.838v26.577c0 3.77 3.068 6.838 6.835 6.838h19.1c.537 0 1.056.201 1.445.566l14.011 13.126s.291.272.537.184c.302-.109.176-.491.176-.491v-11.273c0-1.168.947-2.112 2.115-2.112h4.894c3.767 0 6.832-3.068 6.832-6.838zm-15.89 21.25h-24.165c-1.168 0-2.115-.944-2.115-2.112s.947-2.112 2.115-2.112h24.165c1.168 0 2.115.944 2.115 2.112s-.947 2.112-2.115 2.112zm0-12.082h-24.165c-1.168 0-2.115-.944-2.115-2.112s.947-2.112 2.115-2.112h24.165c1.168 0 2.115.944 2.115 2.112s-.947 2.112-2.115 2.112z" stroke="currentColor" stroke-width="2" fill="none"/>
    <path d="m59.942 48.806h-17.052c-6.111 0-11.065-4.954-11.065-11.065v-.186h-20.999c-3.77 0-6.826 3.056-6.826 6.826v26.583c0 3.77 3.056 6.826 6.826 6.826h4.894c1.168 0 2.115.944 2.115 2.112v11.298s-.074.28.212.423c.292.146.513-.087.513-.087l14.017-13.174c.499-.198.945-.375 1.444-.572h19.092c3.771 0 6.829-3.057 6.829-6.829zm-38.845 10.766c-1.147 0-2.077-.929-2.077-2.077 0-1.146.929-2.075 2.077-2.075 1.147 0 2.077.929 2.077 2.075-.001 1.148-.93 2.077-2.077 2.077zm12.082 0c-1.147 0-2.077-.929-2.077-2.077 0-1.146.929-2.075 2.077-2.075s2.077.929 2.077 2.075c0 1.148-.93 2.077-2.077 2.077zm12.082 0c-1.147 0-2.077-.929-2.077-2.077 0-1.146.929-2.075 2.077-2.075s2.077.929 2.077 2.075c0 1.148-.929 2.077-2.077 2.077z" stroke="currentColor" stroke-width="2" fill="none"/>
  </g>
</svg> 